<?xml version="1.0" encoding="UTF-8" standalone="no"?>
<!-- Created with Inkscape (http://www.inkscape.org/) -->

<svg
   xmlns:dc="http://purl.org/dc/elements/1.1/"
   xmlns:cc="http://creativecommons.org/ns#"
   xmlns:rdf="http://www.w3.org/1999/02/22-rdf-syntax-ns#"
   xmlns:svg="http://www.w3.org/2000/svg"
   xmlns="http://www.w3.org/2000/svg"
   xmlns:sodipodi="http://sodipodi.sourceforge.net/DTD/sodipodi-0.dtd"
   xmlns:inkscape="http://www.inkscape.org/namespaces/inkscape"
   width="148.16667mm"
   height="148.16667mm"
   viewBox="0 0 525.00002 525.00002"
   id="svg2"
   version="1.1"
   inkscape:version="0.91 r"
   sodipodi:docname="selinon.svg"
   inkscape:export-filename="/home/vendy/Multimedia/Obrázky/Logo/selinon.png"
   inkscape:export-xdpi="90"
   inkscape:export-ydpi="90">
  <title
     id="title4168">Selinon logo</title>
  <sodipodi:namedview
     id="base"
     pagecolor="#ffffff"
     bordercolor="#666666"
     borderopacity="0.99215686"
     inkscape:pageopacity="0.0"
     inkscape:pageshadow="2"
     inkscape:zoom="0.79142854"
     inkscape:cx="-539.25379"
     inkscape:cy="333.89762"
     inkscape:document-units="px"
     inkscape:current-layer="layer1"
     showgrid="false"
     fit-margin-top="0"
     fit-margin-left="0"
     fit-margin-right="0"
     fit-margin-bottom="0"
     inkscape:window-width="1920"
     inkscape:window-height="1013"
     inkscape:window-x="0"
     inkscape:window-y="33"
     inkscape:window-maximized="1"
     showguides="false"
     borderlayer="true">
    <inkscape:grid
       type="xygrid"
       id="grid5504" />
    <sodipodi:guide
       position="0,0"
       orientation="0,525.00002"
       id="guide6168" />
    <sodipodi:guide
       position="525.00004,0"
       orientation="-525.00002,0"
       id="guide6170" />
    <sodipodi:guide
       position="525.00004,525.00004"
       orientation="0,-525.00002"
       id="guide6172" />
    <sodipodi:guide
       position="0,525.00004"
       orientation="525.00002,0"
       id="guide6174" />
  </sodipodi:namedview>
  <defs
     id="defs4" />
  <metadata
     id="metadata7">
    <rdf:RDF>
      <cc:Work
         rdf:about="">
        <dc:format>image/svg+xml</dc:format>
        <dc:type
           rdf:resource="http://purl.org/dc/dcmitype/StillImage" />
        <dc:title>Selinon logo</dc:title>
        <dc:date>2.11.2016</dc:date>
        <dc:creator>
          <cc:Agent>
            <dc:title>Vendula Poncova (poncovka@gmail.com)</dc:title>
          </cc:Agent>
        </dc:creator>
      </cc:Work>
    </rdf:RDF>
  </metadata>
  <g
     transform="translate(-98.230217,-66.04567)"
     id="layer1"
     inkscape:groupmode="layer"
     inkscape:label="Vrstva 1">
    <rect
       style="opacity:1;fill:#66cfa7;fill-opacity:1;stroke:none;stroke-width:0.2;stroke-linejoin:round;stroke-miterlimit:4;stroke-dasharray:none;stroke-dashoffset:0;stroke-opacity:1"
       id="rect6143"
       width="525"
       height="525"
       x="98.230225"
       y="66.045677" />
    <ellipse
       style="opacity:1;fill:#197a9f;fill-opacity:1;stroke:none;stroke-width:0.2;stroke-linejoin:round;stroke-miterlimit:4;stroke-dasharray:none;stroke-dashoffset:0;stroke-opacity:1"
       id="path5800"
       cx="206.50981"
       cy="344.54568"
       rx="34.055641"
       ry="49.733631" />
    <ellipse
       style="opacity:1;fill:#197a9f;fill-opacity:1;stroke:none;stroke-width:0.2;stroke-linejoin:round;stroke-miterlimit:4;stroke-dasharray:none;stroke-dashoffset:0;stroke-opacity:1"
       id="path5802"
       cx="515.01752"
       cy="344.54568"
       rx="34.51585"
       ry="49.773117" />
    <g
       id="g5466"
       style="fill:#cde4db;fill-opacity:1"
       transform="matrix(1,0,0,0.97674442,1.5601649,5.7821661)">
      <rect
         y="110.97157"
         x="350.97018"
         height="127.32127"
         width="39.437992"
         id="rect4945-4-9-1-3"
         style="opacity:1;fill:#cde4db;fill-opacity:1;stroke:none;stroke-width:2;stroke-linejoin:round;stroke-miterlimit:4;stroke-dasharray:none;stroke-dashoffset:0;stroke-opacity:1" />
      <rect
         y="-33.396919"
         x="427.60187"
         height="100.04514"
         width="27.258598"
         id="rect4947-7-2-0-6"
         style="opacity:1;fill:#cde4db;fill-opacity:1;stroke:none;stroke-width:2;stroke-linejoin:round;stroke-miterlimit:4;stroke-dasharray:none;stroke-dashoffset:0;stroke-opacity:1"
         transform="matrix(0.91938437,0.39336036,-0.44958393,0.89323809,0,0)" />
      <rect
         y="240.49644"
         x="145.77036"
         height="85.63279"
         width="27.279608"
         id="rect4949-6-0-6-5"
         style="opacity:1;fill:#cde4db;fill-opacity:1;stroke:none;stroke-width:2;stroke-linejoin:round;stroke-miterlimit:4;stroke-dasharray:none;stroke-dashoffset:0;stroke-opacity:1"
         transform="matrix(0.9389222,-0.3441295,0.62821635,0.7780387,0,0)" />
      <path
         inkscape:connector-curvature="0"
         id="path4969-6-2-7-9"
         d="m 395.11902,175.8284 15.5515,-88.079928 12.4592,31.392138 29.34329,-13.09175 -5.75731,32.28 31.50668,11.45541 z"
         style="fill:#cde4db;fill-opacity:1;fill-rule:evenodd;stroke:none;stroke-width:1px;stroke-linecap:butt;stroke-linejoin:miter;stroke-opacity:1" />
      <path
         inkscape:connector-curvature="0"
         id="path4969-3-8-2-6-6"
         d="m 337.34402,178.13015 -84.4477,-22.91479 34.5997,-9.53635 -5.7914,-29.98931 30.9343,8.45486 19.3684,-29.992864 z"
         style="fill:#cde4db;fill-opacity:1;fill-rule:evenodd;stroke:none;stroke-width:1px;stroke-linecap:butt;stroke-linejoin:miter;stroke-opacity:1" />
      <path
         inkscape:transform-center-y="-1.3550726"
         inkscape:transform-center-x="-24.963028"
         inkscape:connector-curvature="0"
         id="path4969-0-8-6-7-3"
         d="m 367.79202,139.46635 -38.4388,-55.364298 27.7198,8.192124 15.3391,-25.557654 14.0422,20.32734 31.1119,-14.29324 z"
         style="fill:#cde4db;fill-opacity:1;fill-rule:evenodd;stroke:none;stroke-width:1px;stroke-linecap:butt;stroke-linejoin:miter;stroke-opacity:1" />
    </g>
    <path
       inkscape:connector-curvature="0"
       style="opacity:1;fill:#197a9f;fill-opacity:1;stroke:none;stroke-width:0.2;stroke-linejoin:round;stroke-miterlimit:4;stroke-dasharray:none;stroke-dashoffset:0;stroke-opacity:1"
       d="m 360.73022,157.76285 a 166.59651,141.7451 0 0 0 -166.5957,141.7461 166.59651,141.7451 0 0 0 166.5957,141.74414 166.59651,141.7451 0 0 0 166.59571,-141.74414 166.59651,141.7451 0 0 0 -166.59571,-141.7461 z m 0,20.25001 A 142.66553,121.4958 0 0 1 503.39624,299.50895 142.66553,121.4958 0 0 1 360.73022,421.00505 142.66553,121.4958 0 0 1 218.06421,299.50895 142.66553,121.4958 0 0 1 360.73022,178.01286 Z"
       id="path5806" />
    <ellipse
       transform="matrix(0.92492658,-0.38014579,0.29466424,0.95560085,0,0)"
       style="opacity:1;fill:#c2bf96;fill-opacity:1;stroke:none;stroke-width:2;stroke-linejoin:round;stroke-miterlimit:4;stroke-dasharray:none;stroke-dashoffset:0;stroke-opacity:1"
       id="path4617-9-5-6-1-6"
       cx="218.01331"
       cy="632.27667"
       rx="28.11886"
       ry="57.694233" />
    <ellipse
       transform="matrix(0.95955662,0.2815157,-0.12298298,0.99240878,0,0)"
       style="opacity:1;fill:#c2bf96;fill-opacity:1;stroke:none;stroke-width:2;stroke-linejoin:round;stroke-miterlimit:4;stroke-dasharray:none;stroke-dashoffset:0;stroke-opacity:1"
       id="path4621-3-9-9-5-3"
       cx="394.37659"
       cy="409.2341"
       rx="23.14419"
       ry="69.106842" />
    <ellipse
       transform="matrix(0.96231705,-0.27192996,0.18846527,0.98207986,0,0)"
       style="opacity:1;fill:#c2bf96;fill-opacity:1;stroke:none;stroke-width:2;stroke-linejoin:round;stroke-miterlimit:4;stroke-dasharray:none;stroke-dashoffset:0;stroke-opacity:1"
       id="path4623-6-3-2-9-9"
       cx="341.12045"
       cy="588.91559"
       rx="24.406364"
       ry="40.801762" />
    <ellipse
       transform="matrix(0.74172714,0.67070176,-0.55451385,0.83217449,0,0)"
       style="opacity:1;fill:#c2bf96;fill-opacity:1;stroke:none;stroke-width:2;stroke-linejoin:round;stroke-miterlimit:4;stroke-dasharray:none;stroke-dashoffset:0;stroke-opacity:1"
       id="path4623-3-1-7-6-4-4"
       cx="503.17923"
       cy="165.11967"
       rx="25.161318"
       ry="41.555691" />
    <ellipse
       ry="148.08272"
       rx="147.88788"
       cy="343.88507"
       cx="361.94165"
       id="path4220-9-5-4-0-1"
       style="fill:#c2bf96;fill-opacity:1;stroke:none;stroke-width:2;stroke-linejoin:round;stroke-miterlimit:4;stroke-dasharray:none;stroke-dashoffset:0;stroke-opacity:1" />
    <path
       inkscape:connector-curvature="0"
       style="fill:#f4eed7;fill-opacity:1;stroke:none;stroke-width:2;stroke-linejoin:round;stroke-miterlimit:4;stroke-dasharray:none;stroke-dashoffset:0;stroke-opacity:1;opacity:0.76"
       d="M 474.00537,247.52483 241.4214,258.24635 a 147.88788,148.08271 0 0 0 -20.49621,41.14718 l 277.23806,-12.78074 a 147.88788,148.08271 0 0 0 -24.15788,-39.08796 z"
       id="rect4397-3-2-9-9-2" />
    <path
       inkscape:connector-curvature="0"
       style="fill:#f4eed7;fill-opacity:1;stroke:none;stroke-width:2;stroke-linejoin:round;stroke-miterlimit:4;stroke-dasharray:none;stroke-dashoffset:0;stroke-opacity:1;opacity:0.76"
       d="m 506.10095,311.68091 -290.69686,13.36794 a 147.88788,148.08271 0 0 0 -1.34964,18.83546 147.88788,148.08271 0 0 0 4.46557,35.49687 l 283.69215,11.04019 a 147.88788,148.08271 0 0 0 7.61745,-46.53706 147.88788,148.08271 0 0 0 -3.72867,-32.2034 z"
       id="rect4401-1-5-5-1-9" />
    <path
       inkscape:connector-curvature="0"
       style="fill:#f4eed7;fill-opacity:1;stroke:none;stroke-width:2;stroke-linejoin:round;stroke-miterlimit:4;stroke-dasharray:none;stroke-dashoffset:0;stroke-opacity:1;opacity:0.76"
       d="m 228.06881,406.41308 a 147.88788,148.08271 0 0 0 26.71337,39.41957 l 200.59131,12.72574 a 147.88788,148.08271 0 0 0 31.48286,-35.72655 L 228.06881,406.41308 Z"
       id="rect4403-9-4-0-7-3" />
    <ellipse
       ry="123.72733"
       rx="104.18656"
       cy="362.63547"
       cx="296.37875"
       id="path4222-4-7-4-7-9"
       style="opacity:0.44299999;fill:#ffffff;fill-opacity:1;stroke:none;stroke-width:2;stroke-linejoin:round;stroke-miterlimit:4;stroke-dasharray:none;stroke-dashoffset:0;stroke-opacity:1"
       transform="matrix(0.99535793,-0.09624239,0.26596339,0.96398313,0,0)" />
    <ellipse
       style="opacity:0.44299999;fill:#ffffff;fill-opacity:1;stroke:none;stroke-width:2;stroke-linejoin:round;stroke-miterlimit:4;stroke-dasharray:none;stroke-dashoffset:0;stroke-opacity:1"
       id="ellipse4540-7-4-8-1-0"
       cx="318.33432"
       cy="351.78418"
       rx="45.675041"
       ry="55.240005"
       transform="matrix(0.98860924,-0.15050508,0.31692025,0.94845219,0,0)" />
    <ellipse
       style="opacity:0.706;fill:#f4eed7;fill-opacity:1;stroke:none;stroke-width:2;stroke-linejoin:round;stroke-miterlimit:4;stroke-dasharray:none;stroke-dashoffset:0;stroke-opacity:1"
       id="path4659-5-4-3-1-5-8"
       cx="209.53941"
       cy="647.48053"
       rx="13.515579"
       ry="47.397285"
       transform="matrix(0.88963821,-0.45666603,0.32351203,0.94622406,0,0)" />
    <ellipse
       style="opacity:0.706;fill:#f4eed7;fill-opacity:1;stroke:none;stroke-width:2;stroke-linejoin:round;stroke-miterlimit:4;stroke-dasharray:none;stroke-dashoffset:0;stroke-opacity:1"
       id="path4659-5-6-2-0-7-2-9-5"
       cx="383.58252"
       cy="429.96396"
       rx="18.987272"
       ry="21.836588"
       transform="matrix(0.98894016,0.14831506,0.14135301,0.98995925,0,0)" />
    <ellipse
       style="opacity:0.706;fill:#f4eed7;fill-opacity:1;stroke:none;stroke-width:2;stroke-linejoin:round;stroke-miterlimit:4;stroke-dasharray:none;stroke-dashoffset:0;stroke-opacity:1"
       id="path4659-5-6-2-7-3-8-7-7-0"
       cx="549.79846"
       cy="10.511732"
       rx="18.59057"
       ry="26.944492"
       transform="matrix(0.5141025,0.85772876,-0.49040194,0.87149638,0,0)" />
    <ellipse
       style="opacity:1;fill:#0a0606;fill-opacity:1;stroke:none;stroke-width:0.2;stroke-linejoin:round;stroke-miterlimit:4;stroke-dasharray:none;stroke-dashoffset:0;stroke-opacity:1"
       id="path5534"
       cx="331.5289"
       cy="332.55902"
       rx="13.373068"
       ry="22.542885" />
    <ellipse
       style="opacity:1;fill:#0a0606;fill-opacity:1;stroke:none;stroke-width:0.2;stroke-linejoin:round;stroke-miterlimit:4;stroke-dasharray:none;stroke-dashoffset:0;stroke-opacity:1"
       id="path5536"
       cx="391.20242"
       cy="329.91946"
       rx="18.340204"
       ry="27.134951" />
    <rect
       style="opacity:1;fill:#197a9f;fill-opacity:1;stroke:none;stroke-width:0.2;stroke-linejoin:round;stroke-miterlimit:4;stroke-dasharray:none;stroke-dashoffset:0;stroke-opacity:1"
       id="rect5811"
       width="127.52836"
       height="19.444197"
       x="542.58337"
       y="336.49521"
       rx="28.766214"
       ry="7.5778356"
       transform="matrix(0.92536789,0.37907027,-0.89253923,0.45096976,0,0)" />
    <ellipse
       style="opacity:1;fill:#197a9f;fill-opacity:1;stroke:none;stroke-width:0.2;stroke-linejoin:round;stroke-miterlimit:4;stroke-dasharray:none;stroke-dashoffset:0;stroke-opacity:1"
       id="path5828"
       cx="388.08197"
       cy="302.33585"
       rx="30.360401"
       ry="17.399492"
       transform="matrix(0.95830031,0.28576303,-0.28576303,0.95830031,0,0)" />
    <ellipse
       style="opacity:0.706;fill:#f4eed7;fill-opacity:1;stroke:none;stroke-width:2;stroke-linejoin:round;stroke-miterlimit:4;stroke-dasharray:none;stroke-dashoffset:0;stroke-opacity:1"
       id="path4659-8-4-7-1-8-6"
       cx="387.18289"
       cy="395.18793"
       rx="14.733071"
       ry="48.926418"
       transform="matrix(0.95765347,0.28792332,-0.09894753,0.99509265,0,0)"
       inkscape:transform-center-x="-8.6888602"
       inkscape:transform-center-y="19.299939" />
    <ellipse
       style="opacity:0.44299999;fill:#ffffff;fill-opacity:1;stroke:none;stroke-width:2;stroke-linejoin:round;stroke-miterlimit:4;stroke-dasharray:none;stroke-dashoffset:0;stroke-opacity:1"
       id="ellipse4540-7-4-8-1-0-6-0"
       cx="649.53802"
       cy="-25.061686"
       rx="15.294075"
       ry="8.7697344"
       transform="matrix(0.65052983,0.7594807,-0.74017973,0.67240908,0,0)" />
  </g>
</svg>
